<svg xmlns="http://www.w3.org/2000/svg" xmlns:xlink="http://www.w3.org/1999/xlink" width="1200" zoomAndPan="magnify" viewBox="0 0 900 899.99999" height="1200" preserveAspectRatio="xMidYMid meet" version="1.0"><path fill="#1b7e99" d="M 900 450 C 900 457.363281 899.820312 464.726562 899.457031 472.082031 C 899.097656 479.4375 898.554688 486.777344 897.832031 494.109375 C 897.109375 501.4375 896.210938 508.742188 895.128906 516.027344 C 894.046875 523.3125 892.789062 530.566406 891.351562 537.789062 C 889.917969 545.011719 888.304688 552.195312 886.515625 559.339844 C 884.722656 566.484375 882.761719 573.582031 880.625 580.628906 C 878.484375 587.675781 876.175781 594.667969 873.695312 601.601562 C 871.214844 608.535156 868.5625 615.402344 865.746094 622.207031 C 862.925781 629.011719 859.945312 635.742188 856.796875 642.398438 C 853.644531 649.058594 850.335938 655.632812 846.863281 662.128906 C 843.394531 668.625 839.765625 675.027344 835.976562 681.347656 C 832.191406 687.664062 828.253906 693.882812 824.160156 700.007812 C 820.070312 706.128906 815.832031 712.148438 811.441406 718.066406 C 807.054688 723.980469 802.527344 729.785156 797.855469 735.476562 C 793.183594 741.167969 788.375 746.746094 783.429688 752.203125 C 778.480469 757.660156 773.40625 762.992188 768.199219 768.199219 C 762.992188 773.40625 757.65625 778.480469 752.203125 783.429688 C 746.746094 788.375 741.167969 793.183594 735.476562 797.855469 C 729.785156 802.527344 723.980469 807.054688 718.066406 811.441406 C 712.148438 815.832031 706.128906 820.070312 700.007812 824.160156 C 693.882812 828.253906 687.664062 832.191406 681.347656 835.976562 C 675.027344 839.765625 668.625 843.394531 662.128906 846.863281 C 655.632812 850.335938 649.058594 853.644531 642.398438 856.796875 C 635.742188 859.945312 629.011719 862.925781 622.207031 865.746094 C 615.402344 868.5625 608.535156 871.214844 601.601562 873.695312 C 594.667969 876.175781 587.675781 878.484375 580.628906 880.621094 C 573.582031 882.761719 566.484375 884.722656 559.339844 886.515625 C 552.195312 888.304688 545.011719 889.917969 537.789062 891.351562 C 530.566406 892.789062 523.3125 894.046875 516.027344 895.128906 C 508.742188 896.210938 501.4375 897.109375 494.109375 897.832031 C 486.777344 898.554688 479.4375 899.097656 472.082031 899.457031 C 464.726562 899.820312 457.363281 900 450 900 C 442.636719 900 435.273438 899.820312 427.917969 899.457031 C 420.5625 899.097656 413.222656 898.554688 405.890625 897.832031 C 398.5625 897.109375 391.257812 896.210938 383.972656 895.128906 C 376.6875 894.046875 369.433594 892.789062 362.210938 891.351562 C 354.984375 889.917969 347.804688 888.304688 340.660156 886.515625 C 333.515625 884.722656 326.417969 882.761719 319.371094 880.625 C 312.324219 878.484375 305.332031 876.175781 298.398438 873.695312 C 291.464844 871.214844 284.597656 868.5625 277.792969 865.746094 C 270.988281 862.925781 264.257812 859.945312 257.601562 856.796875 C 250.941406 853.644531 244.367188 850.335938 237.871094 846.863281 C 231.375 843.394531 224.96875 839.765625 218.652344 835.976562 C 212.335938 832.191406 206.117188 828.253906 199.992188 824.160156 C 193.871094 820.070312 187.851562 815.832031 181.933594 811.441406 C 176.019531 807.054688 170.214844 802.527344 164.523438 797.855469 C 158.832031 793.183594 153.253906 788.375 147.796875 783.429688 C 142.339844 778.480469 137.007812 773.40625 131.800781 768.199219 C 126.59375 762.992188 121.519531 757.660156 116.570312 752.203125 C 111.625 746.746094 106.816406 741.167969 102.144531 735.476562 C 97.472656 729.785156 92.945312 723.980469 88.554688 718.066406 C 84.167969 712.148438 79.929688 706.128906 75.839844 700.007812 C 71.746094 693.882812 67.808594 687.664062 64.023438 681.347656 C 60.234375 675.027344 56.605469 668.625 53.136719 662.128906 C 49.664062 655.632812 46.355469 649.058594 43.203125 642.398438 C 40.054688 635.742188 37.074219 629.011719 34.253906 622.207031 C 31.4375 615.402344 28.785156 608.535156 26.304688 601.601562 C 23.824219 594.667969 21.515625 587.675781 19.375 580.628906 C 17.238281 573.582031 15.273438 566.484375 13.484375 559.339844 C 11.695312 552.195312 10.082031 545.011719 8.648438 537.789062 C 7.210938 530.566406 5.953125 523.3125 4.871094 516.027344 C 3.789062 508.742188 2.890625 501.4375 2.167969 494.109375 C 1.445312 486.777344 0.902344 479.4375 0.542969 472.082031 C 0.179688 464.726562 0 457.363281 0 450 C 0 442.636719 0.179688 435.273438 0.542969 427.917969 C 0.902344 420.5625 1.445312 413.222656 2.167969 405.890625 C 2.890625 398.5625 3.789062 391.257812 4.871094 383.972656 C 5.953125 376.6875 7.210938 369.433594 8.648438 362.210938 C 10.082031 354.984375 11.695312 347.804688 13.484375 340.660156 C 15.273438 333.515625 17.238281 326.417969 19.375 319.371094 C 21.515625 312.324219 23.824219 305.332031 26.304688 298.398438 C 28.785156 291.464844 31.4375 284.597656 34.253906 277.792969 C 37.074219 270.988281 40.054688 264.257812 43.203125 257.601562 C 46.355469 250.941406 49.664062 244.367188 53.136719 237.871094 C 56.605469 231.375 60.234375 224.96875 64.023438 218.652344 C 67.808594 212.335938 71.746094 206.117188 75.839844 199.992188 C 79.929688 193.871094 84.167969 187.851562 88.554688 181.933594 C 92.945312 176.019531 97.472656 170.214844 102.144531 164.523438 C 106.816406 158.832031 111.625 153.253906 116.570312 147.796875 C 121.519531 142.339844 126.59375 137.007812 131.800781 131.800781 C 137.007812 126.59375 142.339844 121.519531 147.796875 116.570312 C 153.253906 111.625 158.832031 106.816406 164.523438 102.144531 C 170.214844 97.472656 176.019531 92.945312 181.933594 88.554688 C 187.851562 84.167969 193.871094 79.929688 199.992188 75.839844 C 206.117188 71.746094 212.335938 67.808594 218.652344 64.023438 C 224.96875 60.234375 231.375 56.605469 237.871094 53.136719 C 244.367188 49.664062 250.941406 46.355469 257.601562 43.203125 C 264.257812 40.054688 270.988281 37.074219 277.792969 34.253906 C 284.597656 31.4375 291.464844 28.785156 298.398438 26.304688 C 305.332031 23.824219 312.324219 21.515625 319.371094 19.375 C 326.417969 17.238281 333.515625 15.277344 340.660156 13.484375 C 347.804688 11.695312 354.984375 10.082031 362.210938 8.648438 C 369.433594 7.210938 376.6875 5.953125 383.972656 4.871094 C 391.257812 3.789062 398.5625 2.890625 405.890625 2.167969 C 413.222656 1.445312 420.5625 0.902344 427.917969 0.542969 C 435.273438 0.179688 442.636719 0 450 0 C 457.363281 0 464.726562 0.179688 472.082031 0.542969 C 479.4375 0.902344 486.777344 1.445312 494.109375 2.167969 C 501.4375 2.890625 508.742188 3.789062 516.027344 4.871094 C 523.3125 5.953125 530.566406 7.210938 537.789062 8.648438 C 545.011719 10.082031 552.195312 11.695312 559.339844 13.484375 C 566.484375 15.277344 573.582031 17.238281 580.628906 19.375 C 587.675781 21.515625 594.667969 23.824219 601.601562 26.304688 C 608.535156 28.785156 615.402344 31.4375 622.207031 34.253906 C 629.011719 37.074219 635.742188 40.054688 642.398438 43.203125 C 649.058594 46.355469 655.632812 49.664062 662.128906 53.136719 C 668.625 56.605469 675.027344 60.234375 681.347656 64.023438 C 687.664062 67.808594 693.882812 71.746094 700.007812 75.839844 C 706.128906 79.929688 712.148438 84.167969 718.066406 88.554688 C 723.980469 92.945312 729.785156 97.472656 735.476562 102.144531 C 741.167969 106.816406 746.746094 111.625 752.203125 116.570312 C 757.65625 121.519531 762.992188 126.59375 768.199219 131.800781 C 773.40625 137.007812 778.480469 142.339844 783.429688 147.796875 C 788.375 153.253906 793.183594 158.832031 797.855469 164.523438 C 802.527344 170.214844 807.054688 176.019531 811.441406 181.933594 C 815.832031 187.851562 820.070312 193.871094 824.160156 199.992188 C 828.253906 206.117188 832.191406 212.335938 835.976562 218.652344 C 839.765625 224.96875 843.394531 231.375 846.863281 237.871094 C 850.335938 244.367188 853.644531 250.941406 856.796875 257.601562 C 859.945312 264.257812 862.925781 270.988281 865.746094 277.792969 C 868.5625 284.597656 871.214844 291.464844 873.695312 298.398438 C 876.175781 305.332031 878.484375 312.324219 880.621094 319.371094 C 882.761719 326.417969 884.722656 333.515625 886.515625 340.660156 C 888.304688 347.804688 889.917969 354.984375 891.351562 362.210938 C 892.789062 369.433594 894.046875 376.6875 895.128906 383.972656 C 896.210938 391.257812 897.109375 398.5625 897.832031 405.890625 C 898.554688 413.222656 899.097656 420.5625 899.457031 427.917969 C 899.820312 435.273438 900 442.636719 900 450 Z M 900 450 " fill-opacity="1" fill-rule="nonzero"/><path fill="#eaeaea" d="M 751.320312 255.960938 L 550.078125 415.441406 L 756 578.878906 L 756 275.039062 C 756.058594 271.710938 755.691406 268.429688 754.898438 265.195312 C 754.105469 261.964844 752.910156 258.882812 751.320312 255.960938 Z M 751.320312 255.960938 " fill-opacity="1" fill-rule="nonzero"/><path fill="#eaeaea" d="M 148.679688 255.960938 C 147.089844 258.882812 145.894531 261.964844 145.101562 265.195312 C 144.308594 268.429688 143.941406 271.710938 144 275.039062 L 144 578.878906 L 349.921875 415.441406 Z M 148.679688 255.960938 " fill-opacity="1" fill-rule="nonzero"/><path fill="#eaeaea" d="M 478.800781 471.960938 C 476.890625 473.738281 474.832031 475.3125 472.617188 476.691406 C 470.402344 478.066406 468.074219 479.21875 465.636719 480.144531 C 463.199219 481.070312 460.695312 481.753906 458.125 482.195312 C 455.554688 482.632812 452.96875 482.824219 450.359375 482.761719 C 447.589844 482.789062 444.84375 482.558594 442.117188 482.070312 C 439.394531 481.582031 436.738281 480.847656 434.148438 479.863281 C 431.5625 478.875 429.089844 477.65625 426.730469 476.207031 C 424.371094 474.757812 422.167969 473.101562 420.121094 471.238281 L 373.320312 435.238281 L 144 615.960938 L 144 624.960938 C 144 626.386719 144.070312 627.808594 144.210938 629.230469 C 144.347656 630.648438 144.558594 632.058594 144.835938 633.457031 C 145.117188 634.855469 145.460938 636.238281 145.875 637.605469 C 146.289062 638.96875 146.769531 640.3125 147.316406 641.628906 C 147.863281 642.949219 148.472656 644.234375 149.144531 645.492188 C 149.816406 646.753906 150.546875 647.972656 151.339844 649.160156 C 152.132812 650.347656 152.984375 651.492188 153.886719 652.59375 C 154.792969 653.695312 155.75 654.753906 156.757812 655.761719 C 157.765625 656.769531 158.824219 657.726562 159.925781 658.632812 C 161.027344 659.539062 162.171875 660.386719 163.359375 661.179688 C 164.546875 661.972656 165.769531 662.703125 167.027344 663.375 C 168.285156 664.050781 169.570312 664.65625 170.890625 665.203125 C 172.207031 665.75 173.550781 666.230469 174.914062 666.644531 C 176.28125 667.058594 177.664062 667.40625 179.0625 667.683594 C 180.460938 667.960938 181.871094 668.171875 183.289062 668.308594 C 184.710938 668.449219 186.132812 668.519531 187.558594 668.519531 L 712.441406 668.519531 C 713.867188 668.519531 715.289062 668.449219 716.710938 668.308594 C 718.128906 668.171875 719.539062 667.960938 720.9375 667.683594 C 722.335938 667.40625 723.71875 667.058594 725.085938 666.644531 C 726.449219 666.230469 727.792969 665.75 729.109375 665.203125 C 730.425781 664.65625 731.714844 664.050781 732.972656 663.375 C 734.230469 662.703125 735.453125 661.972656 736.640625 661.179688 C 737.828125 660.386719 738.972656 659.539062 740.074219 658.632812 C 741.175781 657.726562 742.234375 656.769531 743.242188 655.761719 C 744.25 654.753906 745.207031 653.695312 746.113281 652.59375 C 747.015625 651.492188 747.867188 650.347656 748.660156 649.160156 C 749.453125 647.972656 750.183594 646.753906 750.855469 645.492188 C 751.527344 644.234375 752.136719 642.949219 752.683594 641.628906 C 753.230469 640.3125 753.710938 638.96875 754.125 637.605469 C 754.539062 636.238281 754.882812 634.855469 755.164062 633.457031 C 755.441406 632.058594 755.652344 630.648438 755.789062 629.230469 C 755.929688 627.808594 756 626.386719 756 624.960938 L 756 615.960938 L 526.679688 433.800781 Z M 478.800781 471.960938 " fill-opacity="1" fill-rule="nonzero"/><path fill="#eaeaea" d="M 396 415.441406 L 438.480469 449.28125 C 439.164062 449.964844 439.910156 450.578125 440.71875 451.117188 C 441.523438 451.65625 442.375 452.109375 443.269531 452.480469 C 444.164062 452.851562 445.089844 453.132812 446.039062 453.324219 C 446.992188 453.511719 447.949219 453.605469 448.921875 453.605469 C 449.890625 453.605469 450.851562 453.511719 451.800781 453.324219 C 452.75 453.132812 453.675781 452.851562 454.570312 452.480469 C 455.464844 452.109375 456.316406 451.65625 457.121094 451.117188 C 457.929688 450.578125 458.675781 449.964844 459.359375 449.28125 L 502.558594 413.28125 L 525.960938 394.921875 L 729.71875 233.28125 C 723.996094 230.703125 717.996094 229.382812 711.71875 229.320312 L 187.558594 229.320312 C 181.390625 229.347656 175.511719 230.667969 169.921875 233.28125 L 373.320312 396 Z M 396 415.441406 " fill-opacity="1" fill-rule="nonzero"/></svg>