<svg xmlns="http://www.w3.org/2000/svg" xmlns:xlink="http://www.w3.org/1999/xlink" width="1400" zoomAndPan="magnify" viewBox="0 0 1050 899.99999" height="1200" preserveAspectRatio="xMidYMid meet" version="1.0"><defs><g/><clipPath id="2474316325"><path d="M 159 243.953125 L 444.789062 243.953125 L 444.789062 628.105469 L 159 628.105469 Z M 159 243.953125 " clip-rule="nonzero"/></clipPath><clipPath id="770caa5dc1"><path d="M 267.585938 273.972656 C 261.601562 273.972656 255.683594 274.261719 249.828125 274.839844 C 242.394531 255.214844 246.222656 243.953125 246.222656 243.953125 C 230.136719 262.613281 240.882812 288.382812 245.773438 312.546875 C 250.664062 336.707031 261.214844 362.734375 257.097656 387.058594 C 252.820312 412.183594 225.023438 434.351562 209.355469 454.429688 C 183.292969 487.824219 187.058594 525.371094 187.058594 525.371094 C 162.1875 474.890625 170.488281 393.394531 201.117188 330.046875 C 178.820312 360.035156 155.945312 408.9375 159.710938 476.015625 C 163.21875 538.625 218.683594 589.199219 247.542969 604.226562 C 223.445312 577.101562 216.335938 535.4375 231.230469 502.171875 C 241.621094 478.976562 260.734375 461.089844 277.945312 442.363281 C 295.125 423.640625 311.46875 401.953125 313.851562 376.632812 C 330.417969 401.695312 344.15625 426.148438 349.433594 450.855469 C 355.515625 479.363281 353.039062 510.988281 336.148438 534.765625 C 328.199219 545.960938 317.519531 554.839844 307.417969 564.136719 C 298.472656 572.375 289.753906 581.253906 284.027344 591.902344 C 280.839844 566.355469 296.15625 537.175781 311.179688 508.640625 C 332.480469 468.132812 314.816406 439.691406 314.816406 439.691406 C 328.328125 488.082031 267.585938 531.480469 267.585938 587.558594 C 267.585938 606.507812 273.214844 619.476562 279.007812 628.707031 C 371.730469 622.820312 445.148438 545.765625 445.148438 451.53125 C 445.117188 353.46875 365.617188 273.972656 267.585938 273.972656 Z M 267.585938 273.972656 " clip-rule="nonzero"/></clipPath><clipPath id="ceaddc1c99"><path d="M 90 285 L 267 285 L 267 628.105469 L 90 628.105469 Z M 90 285 " clip-rule="nonzero"/></clipPath><clipPath id="12cddbf464"><path d="M 154.5625 518 C 132.429688 462.054688 134.390625 396.679688 162.445312 343.433594 C 173.640625 322.199219 188.34375 303.25 204.558594 285.519531 C 137.609375 310.9375 90.023438 375.667969 90.023438 451.53125 C 90.023438 549.113281 168.71875 628.289062 266.105469 629.0625 C 216.464844 608.921875 175.316406 570.441406 154.5625 518 Z M 154.5625 518 " clip-rule="nonzero"/></clipPath></defs><g clip-path="url(#2474316325)"><g clip-path="url(#770caa5dc1)"><path fill="#99e631" d="M 444.789062 243.953125 L 444.789062 628.105469 L 155.945312 628.105469 L 155.945312 243.953125 Z M 444.789062 243.953125 " fill-opacity="1" fill-rule="nonzero"/></g></g><g clip-path="url(#ceaddc1c99)"><g clip-path="url(#12cddbf464)"><path fill="#99e631" d="M 266.105469 285.519531 L 266.105469 628.105469 L 90.023438 628.105469 L 90.023438 285.519531 Z M 266.105469 285.519531 " fill-opacity="1" fill-rule="nonzero"/></g></g><g fill="#99e631" fill-opacity="1"><g transform="translate(470.842901, 479.175669)"><g><path d="M 12.3125 0 L 12.3125 -141.609375 L 107.734375 -141.609375 L 107.734375 -116.921875 L 42.25 -116.921875 L 42.25 -83.1875 L 102.828125 -83.1875 L 102.828125 -58.5 L 42.25 -58.5 L 42.25 -24.6875 L 108.015625 -24.6875 L 108.015625 0 Z M 12.3125 0 "/></g></g></g><g fill="#99e631" fill-opacity="1"><g transform="translate(590.119187, 479.175669)"><g><path d="M 137.25 -92.03125 L 106.96875 -92.03125 C 105.820312 -99.820312 102.503906 -105.941406 97.015625 -110.390625 C 91.523438 -114.835938 84.679688 -117.0625 76.484375 -117.0625 C 65.503906 -117.0625 56.707031 -113.039062 50.09375 -105 C 43.476562 -96.957031 40.171875 -85.5625 40.171875 -70.8125 C 40.171875 -55.6875 43.5 -44.191406 50.15625 -36.328125 C 56.820312 -28.472656 65.523438 -24.546875 76.265625 -24.546875 C 84.242188 -24.546875 91 -26.628906 96.53125 -30.796875 C 102.0625 -34.972656 105.539062 -40.84375 106.96875 -48.40625 L 137.25 -48.265625 C 136.195312 -39.597656 133.109375 -31.4375 127.984375 -23.78125 C 122.867188 -16.132812 115.921875 -9.9375 107.140625 -5.1875 C 98.359375 -0.4375 87.90625 1.9375 75.78125 1.9375 C 63.15625 1.9375 51.875 -0.921875 41.9375 -6.640625 C 32 -12.359375 24.160156 -20.632812 18.421875 -31.46875 C 12.679688 -42.300781 9.8125 -55.414062 9.8125 -70.8125 C 9.8125 -86.25 12.71875 -99.382812 18.53125 -110.21875 C 24.34375 -121.050781 32.222656 -129.3125 42.171875 -135 C 52.128906 -140.695312 63.332031 -143.546875 75.78125 -143.546875 C 86.707031 -143.546875 96.5625 -141.53125 105.34375 -137.5 C 114.125 -133.46875 121.316406 -127.613281 126.921875 -119.9375 C 132.523438 -112.257812 135.96875 -102.957031 137.25 -92.03125 Z M 137.25 -92.03125 "/></g></g></g><g fill="#99e631" fill-opacity="1"><g transform="translate(736.569723, 479.175669)"><g><path d="M 142.4375 -70.8125 C 142.4375 -55.363281 139.519531 -42.222656 133.6875 -31.390625 C 127.863281 -20.554688 119.945312 -12.289062 109.9375 -6.59375 C 99.9375 -0.90625 88.664062 1.9375 76.125 1.9375 C 63.539062 1.9375 52.25 -0.921875 42.25 -6.640625 C 32.25 -12.359375 24.34375 -20.644531 18.53125 -31.5 C 12.71875 -42.351562 9.8125 -55.457031 9.8125 -70.8125 C 9.8125 -86.25 12.71875 -99.382812 18.53125 -110.21875 C 24.34375 -121.050781 32.25 -129.3125 42.25 -135 C 52.25 -140.695312 63.539062 -143.546875 76.125 -143.546875 C 88.664062 -143.546875 99.9375 -140.695312 109.9375 -135 C 119.945312 -129.3125 127.863281 -121.050781 133.6875 -110.21875 C 139.519531 -99.382812 142.4375 -86.25 142.4375 -70.8125 Z M 112.09375 -70.8125 C 112.09375 -85.832031 108.816406 -97.296875 102.265625 -105.203125 C 95.722656 -113.109375 87.007812 -117.0625 76.125 -117.0625 C 65.25 -117.0625 56.535156 -113.109375 49.984375 -105.203125 C 43.441406 -97.296875 40.171875 -85.832031 40.171875 -70.8125 C 40.171875 -55.820312 43.441406 -44.363281 49.984375 -36.4375 C 56.535156 -28.507812 65.25 -24.546875 76.125 -24.546875 C 87.007812 -24.546875 95.722656 -28.507812 102.265625 -36.4375 C 108.816406 -44.363281 112.09375 -55.820312 112.09375 -70.8125 Z M 112.09375 -70.8125 "/></g></g></g><g fill="#99e631" fill-opacity="1"><g transform="translate(475.736549, 620.011721)"><g><path d="M 9.296875 0 L 9.296875 -106.96875 L 31.90625 -106.96875 L 31.90625 -62.828125 L 77.828125 -62.828125 L 77.828125 -106.96875 L 100.390625 -106.96875 L 100.390625 0 L 77.828125 0 L 77.828125 -44.1875 L 31.90625 -44.1875 L 31.90625 0 Z M 9.296875 0 "/></g></g></g><g fill="#99e631" fill-opacity="1"><g transform="translate(585.466705, 620.011721)"><g><path d="M 107.59375 -53.484375 C 107.59375 -41.816406 105.390625 -31.890625 100.984375 -23.703125 C 96.578125 -15.523438 90.597656 -9.285156 83.046875 -4.984375 C 75.492188 -0.679688 66.976562 1.46875 57.5 1.46875 C 48 1.46875 39.46875 -0.6875 31.90625 -5 C 24.351562 -9.320312 18.382812 -15.582031 14 -23.78125 C 9.613281 -31.988281 7.421875 -41.890625 7.421875 -53.484375 C 7.421875 -65.148438 9.613281 -75.070312 14 -83.25 C 18.382812 -91.4375 24.351562 -97.675781 31.90625 -101.96875 C 39.46875 -106.269531 48 -108.421875 57.5 -108.421875 C 66.976562 -108.421875 75.492188 -106.269531 83.046875 -101.96875 C 90.597656 -97.675781 96.578125 -91.4375 100.984375 -83.25 C 105.390625 -75.070312 107.59375 -65.148438 107.59375 -53.484375 Z M 84.65625 -53.484375 C 84.65625 -64.835938 82.179688 -73.5 77.234375 -79.46875 C 72.296875 -85.4375 65.71875 -88.421875 57.5 -88.421875 C 49.28125 -88.421875 42.695312 -85.4375 37.75 -79.46875 C 32.8125 -73.5 30.34375 -64.835938 30.34375 -53.484375 C 30.34375 -42.171875 32.8125 -33.519531 37.75 -27.53125 C 42.695312 -21.539062 49.28125 -18.546875 57.5 -18.546875 C 65.71875 -18.546875 72.296875 -21.539062 77.234375 -27.53125 C 82.179688 -33.519531 84.65625 -42.171875 84.65625 -53.484375 Z M 84.65625 -53.484375 "/></g></g></g><g fill="#99e631" fill-opacity="1"><g transform="translate(700.471842, 620.011721)"><g><path d="M 75.53125 -106.96875 L 97.984375 -106.96875 L 97.984375 -36.25 C 97.984375 -28.164062 96.082031 -21.3125 92.28125 -15.6875 C 88.488281 -10.070312 83.257812 -5.800781 76.59375 -2.875 C 69.925781 0.0507812 62.273438 1.515625 53.640625 1.515625 C 45.003906 1.515625 37.34375 0.0507812 30.65625 -2.875 C 23.96875 -5.800781 18.734375 -10.070312 14.953125 -15.6875 C 11.179688 -21.3125 9.296875 -28.164062 9.296875 -36.25 L 9.296875 -106.96875 L 31.90625 -106.96875 L 31.90625 -37.03125 C 31.90625 -31.320312 33.96875 -26.828125 38.09375 -23.546875 C 42.226562 -20.273438 47.410156 -18.640625 53.640625 -18.640625 C 59.972656 -18.640625 65.203125 -20.273438 69.328125 -23.546875 C 73.460938 -26.828125 75.53125 -31.320312 75.53125 -37.03125 Z M 75.53125 -106.96875 "/></g></g></g><g fill="#99e631" fill-opacity="1"><g transform="translate(807.747287, 620.011721)"><g><path d="M 67.328125 -76.203125 C 66.910156 -80.410156 65.109375 -83.679688 61.921875 -86.015625 C 58.734375 -88.347656 54.441406 -89.515625 49.046875 -89.515625 C 43.503906 -89.515625 39.253906 -88.382812 36.296875 -86.125 C 33.335938 -83.863281 31.859375 -81.007812 31.859375 -77.5625 C 31.785156 -73.726562 33.425781 -70.828125 36.78125 -68.859375 C 40.144531 -66.890625 44.144531 -65.367188 48.78125 -64.296875 L 58.390625 -62 C 64.585938 -60.601562 70.097656 -58.582031 74.921875 -55.9375 C 79.742188 -53.289062 83.539062 -49.882812 86.3125 -45.71875 C 89.082031 -41.5625 90.46875 -36.503906 90.46875 -30.546875 C 90.425781 -20.765625 86.757812 -12.972656 79.46875 -7.171875 C 72.175781 -1.378906 62 1.515625 48.9375 1.515625 C 35.945312 1.515625 25.585938 -1.441406 17.859375 -7.359375 C 10.128906 -13.285156 6.125 -22.023438 5.84375 -33.578125 L 27.734375 -33.578125 C 28.117188 -28.222656 30.234375 -24.191406 34.078125 -21.484375 C 37.921875 -18.785156 42.785156 -17.4375 48.671875 -17.4375 C 54.421875 -17.4375 59.007812 -18.65625 62.4375 -21.09375 C 65.863281 -23.53125 67.597656 -26.703125 67.640625 -30.609375 C 67.597656 -34.222656 66.007812 -37.003906 62.875 -38.953125 C 59.75 -40.910156 55.28125 -42.585938 49.46875 -43.984375 L 37.8125 -46.90625 C 28.789062 -49.0625 21.671875 -52.488281 16.453125 -57.1875 C 11.234375 -61.882812 8.640625 -68.171875 8.671875 -76.046875 C 8.640625 -82.523438 10.367188 -88.191406 13.859375 -93.046875 C 17.359375 -97.898438 22.171875 -101.675781 28.296875 -104.375 C 34.429688 -107.070312 41.398438 -108.421875 49.203125 -108.421875 C 57.140625 -108.421875 64.078125 -107.0625 70.015625 -104.34375 C 75.953125 -101.632812 80.570312 -97.859375 83.875 -93.015625 C 87.1875 -88.179688 88.894531 -82.578125 89 -76.203125 Z M 67.328125 -76.203125 "/></g></g></g><g fill="#99e631" fill-opacity="1"><g transform="translate(904.054946, 620.011721)"><g><path d="M 9.296875 0 L 9.296875 -106.96875 L 81.375 -106.96875 L 81.375 -88.3125 L 31.90625 -88.3125 L 31.90625 -62.828125 L 77.671875 -62.828125 L 77.671875 -44.1875 L 31.90625 -44.1875 L 31.90625 -18.640625 L 81.578125 -18.640625 L 81.578125 0 Z M 9.296875 0 "/></g></g></g></svg>